<?xml version="1.0" ?><!DOCTYPE svg  PUBLIC '-//W3C//DTD SVG 1.1//EN'  'http://www.w3.org/Graphics/SVG/1.1/DTD/svg11.dtd'><svg height="512px" style="enable-background:new 0 0 512 512;" version="1.1" viewBox="0 0 512 512" width="512px" xml:space="preserve" xmlns="http://www.w3.org/2000/svg" xmlns:xlink="http://www.w3.org/1999/xlink"><g id="_x32_7_x2C__PDF_x2C__File_type_x2C__Adobe"><g><path d="M319,73H75v112h244V73z M174.822,128.015c-0.908,2.304-2.617,4.329-4.412,5.904c-1.796,1.575-4.008,2.959-6.52,3.788    c-2.518,0.83-5.459,1.521-8.572,1.521L152,139.061V160h-14V98h15.25c0.479,0,1.375-0.161,2.691-0.19    c0.129-0.004,0.259-0.177,0.388-0.177c1.225,0,2.609,0.125,4.15,0.35c1.704,0.246,3.488,0.709,5.342,1.372    c1.858,0.663,3.562,1.691,5.12,3.069c1.555,1.384,2.83,3.186,3.816,5.394c0.988,2.213,1.106,5.026,1.46,8.38    C176.579,119.673,176.193,124.548,174.822,128.015z M223.629,141.833c-0.987,3.758-2.603,7.016-4.85,9.75    c-2.246,2.736-5.196,4.734-8.846,6.254c-3.654,1.521-8.113,2.164-13.383,2.164H184V98h10.754c0.358,0,1.375-0.174,3.054-0.232    c0.988-0.033,2.392-0.314,3.838-0.314c1.008,0,2.042,0.066,2.962,0.237c2.246,0.412,4.625,1.193,7.143,2.327    c2.512,1.133,4.833,2.878,6.961,5.227c2.121,2.351,4.234,5.6,5.264,9.55c1.154,4.43,1.137,8.87,1.137,14.674    C225.113,133.948,224.616,138.069,223.629,141.833z M264,109h-18v15h16v11h-16v25h-13V98h31V109z"/><path d="M281.993,260.174c-0.141-12.034-4.059-13.713-7.555-13.713c-3.498,0-7.977,3.778-7.977,17.631    c0,13.859,5.321,28.835,7.977,31.63C274.438,295.722,282.133,272.214,281.993,260.174z"/><polygon points="380,32.899 380,102 449.048,102   "/><path d="M155.224,109H152v18.486c0,0.017,1.132,0.021,1.51,0.021c2.78,0,5.646-0.379,7.195-1.479c2.887-2.054,2.878-4.792,2.878-8    c0-2.267-0.774-5.231-2.383-7.04C159.921,109.547,158.099,109,155.224,109z"/><path d="M198.583,417.621c14.943,8.939,37.928-35.688,37.928-35.688C228.534,382.774,184.309,409.084,198.583,417.621z"/><path d="M210.171,115.447c-1.05-2.075-2.458-3.735-4.225-5.144c-1.729-1.385-5.063-1.304-7.788-1.304c-0.055,0-2.158,0-2.158,0    v39.687c3,0.016,1.859,0.025,2.276,0.025c2.13,0,4.876-0.288,6.356-1.375c1.767-1.295,3.698-2.667,4.749-4.684    c1.046-2.021,1.791-4.204,2.212-6.554c0.42-2.346,0.435-4.734,0.435-6.671c0-1.992,0.103-4.279-0.018-7.146    C211.905,119.878,211.217,117.518,210.171,115.447z"/><path d="M269.257,352.964c-5.871,13.157-5.871,13.157-5.871,13.157s7.181-3.638,21.507-7.14    c14.315-3.498,20.479-4.198,20.479-4.198s-16.098-17.771-24.215-32.889C281.156,321.895,275.139,339.812,269.257,352.964z"/><path d="M370,33H118v29h213v134H118v283h331V112h-79V33z M379.542,367.098c0.141,1.402,1.263,14.278-21.694,15.116    c-22.945,0.842-46.745-23.093-46.745-23.093s-9.789,1.544-17.896,3.503c-8.108,1.958-34.159,9.093-34.159,9.093    s-7.701,13.998-24.776,36.39c-17.075,22.392-36.203,20.713-41.659,13.298c-6.34-8.612-1.45-17.215,10.59-28.414    c12.034-11.192,39.793-20.479,39.793-20.479s5.597-10.075,13.807-29.297c8.21-19.22,14.419-38.535,14.419-38.535    s-8.125-18.439-9.711-34.14c-1.767-17.5,0.192-29.26,13.629-29.4c13.438-0.14,17.637,9.94,18.053,27.431    c0.421,17.496-9.095,45.347-9.095,45.347c7.837,16.936,29.391,38.766,29.391,38.766s6.994-1.819,35.823-2.516    C378.145,349.467,379.402,365.7,379.542,367.098z"/><path d="M319.313,357.771c17.729,16.888,46.558,23.366,46.558,7.461C365.871,349.332,319.313,357.771,319.313,357.771z"/></g></g><g id="Layer_1"/></svg>